<?xml version="1.0" encoding="UTF-8" standalone="no"?>
<svg
   xmlns:dc="http://purl.org/dc/elements/1.1/"
   xmlns:cc="http://creativecommons.org/ns#"
   xmlns:rdf="http://www.w3.org/1999/02/22-rdf-syntax-ns#"
   xmlns:svg="http://www.w3.org/2000/svg"
   xmlns="http://www.w3.org/2000/svg"
   xmlns:sodipodi="http://sodipodi.sourceforge.net/DTD/sodipodi-0.dtd"
   xmlns:inkscape="http://www.inkscape.org/namespaces/inkscape"
   inkscape:export-ydpi="33.060085"
   inkscape:export-xdpi="33.060085"
   inkscape:export-filename="/home/steve/projects/bigtech.fail/website/static/img/emoji/face-with-hand-over-mouth.png"
   inkscape:version="1.0 (4035a4fb49, 2020-05-01)"
   sodipodi:docname="face-with-hand-over-mouth.svg"
   id="svg8"
   version="1.1"
   viewBox="0 0 210 297"
   height="297mm"
   width="210mm">
  <defs
     id="defs2" />
  <sodipodi:namedview
     inkscape:guide-bbox="true"
     showguides="true"
     inkscape:window-maximized="1"
     inkscape:window-y="0"
     inkscape:window-x="0"
     inkscape:window-height="1015"
     inkscape:window-width="1920"
     showgrid="false"
     inkscape:document-rotation="0"
     inkscape:current-layer="layer12"
     inkscape:document-units="mm"
     inkscape:cy="514.42029"
     inkscape:cx="255.84178"
     inkscape:zoom="0.83762581"
     inkscape:pageshadow="2"
     inkscape:pageopacity="0.0"
     borderopacity="1.0"
     bordercolor="#666666"
     pagecolor="#ffffff"
     id="base" />
  <metadata
     id="metadata5">
    <rdf:RDF>
      <cc:Work
         rdf:about="">
        <dc:format>image/svg+xml</dc:format>
        <dc:type
           rdf:resource="http://purl.org/dc/dcmitype/StillImage" />
        <dc:title></dc:title>
      </cc:Work>
    </rdf:RDF>
  </metadata>
  <g
     id="layer1"
     inkscape:groupmode="layer"
     inkscape:label="base">
    <circle
       r="95.842163"
       cy="123.38254"
       cx="103.78429"
       id="path10"
       style="fill:#f7e65d;stroke:#d5ac11;stroke-width:5;stroke-linejoin:round;stroke-miterlimit:4;stroke-dasharray:none;fill-opacity:1;stroke-opacity:1" />
  </g>
  <g
     inkscape:label="eyes"
     id="layer3"
     inkscape:groupmode="layer">
    <path
       sodipodi:nodetypes="sssss"
       d="m 83.997814,105.81743 c 6e-6,4.8267 -7.722451,-8.15946 -17.375846,-8.15946 -9.653395,-1e-6 -17.582179,12.98616 -17.582173,8.15946 3e-6,-4.82669 7.825621,-13.889219 17.479009,-13.889219 9.653388,0 17.479007,9.062529 17.47901,13.889219 z"
       style="fill:#765000;fill-opacity:1;stroke:#765000;stroke-width:8.34401;stroke-linecap:round;stroke-linejoin:round;stroke-miterlimit:4;stroke-dasharray:none;stroke-opacity:1"
       id="path940" />
    <path
       id="path943"
       style="fill:#765000;fill-opacity:1;stroke:#765000;stroke-width:8.34401;stroke-linecap:round;stroke-linejoin:round;stroke-miterlimit:4;stroke-dasharray:none;stroke-opacity:1"
       d="m 158.65357,105.81743 c 0,4.8267 -7.72245,-8.15946 -17.37585,-8.15946 -9.65339,-1e-6 -17.58218,12.98616 -17.58217,8.15946 0,-4.82669 7.82562,-13.889219 17.47901,-13.889219 9.65338,0 17.479,9.062529 17.47901,13.889219 z"
       sodipodi:nodetypes="sssss" />
  </g>
  <g
     inkscape:label="hand"
     id="layer12"
     inkscape:groupmode="layer">
    <path
       id="rect3769"
       style="fill:#ffb100;fill-opacity:1;stroke:#9f5d00;stroke-width:3.80761;stroke-linecap:round;stroke-linejoin:round;stroke-miterlimit:4;stroke-dasharray:none;stroke-opacity:1"
       d="m 137.46379,150.81517 -0.0818,-0.12239 -39.363288,22.69616 0.0818,0.1224 z m -5.58894,20.75669 -0.0904,-0.13526 -33.111051,19.09124 0.0905,0.13523 z m -36.010996,-14.70121 38.653876,-22.0652 c 4.16483,-2.37746 9.39151,-1.49027 11.74449,2.02787 v 0 c 2.353,3.5181 0.90339,8.27818 -3.24995,10.67292 l -5.54116,3.19491 c 4.12085,-2.256 9.232,-1.32778 11.54823,2.13536 2.35298,3.51812 0.90338,8.27818 -3.24998,10.67292 l -14.08101,8.11887 c 4.00982,-1.87149 8.76126,-0.87302 10.97023,2.4298 2.353,3.51812 0.90359,8.27853 -3.24972,10.67326 l -48.87442,28.1801 c -0.349736,0.20165 -0.70752,0.37808 -1.070306,0.53331 -0.261634,0.15817 -0.5256,0.31486 -0.792355,0.46868 -17.52908,10.10692 -33.896745,5.70734 -43.867013,-9.1999 -9.030751,-13.50252 -8.331575,-41.7334 4.906299,-54.44458 0.338542,-0.61865 0.770112,-1.20698 1.299516,-1.74567 l 20.337154,-20.69406 c 3.149177,-3.20444 8.462663,-3.43037 11.91386,-0.50658 3.451183,2.92378 3.694318,7.85718 0.545137,11.0616 L 68.566153,153.8923 c 0.14342,0.29749 0.292014,0.60751 0.43828,0.91221 0.141213,-0.0913 0.284831,-0.18035 0.433006,-0.26579 l 48.874401,-28.18009 c 4.15335,-2.39475 9.39152,-1.49027 11.74453,2.02787 2.35297,3.51812 0.90336,8.27818 -3.24997,10.67291 L 86.744119,162.1586" />
  </g>
</svg>
