<?xml version="1.0" encoding="UTF-8" standalone="no"?>
<svg
   xmlns:dc="http://purl.org/dc/elements/1.1/"
   xmlns:cc="http://creativecommons.org/ns#"
   xmlns:rdf="http://www.w3.org/1999/02/22-rdf-syntax-ns#"
   xmlns:svg="http://www.w3.org/2000/svg"
   xmlns="http://www.w3.org/2000/svg"
   xmlns:sodipodi="http://sodipodi.sourceforge.net/DTD/sodipodi-0.dtd"
   xmlns:inkscape="http://www.inkscape.org/namespaces/inkscape"
   inkscape:export-ydpi="33.060085"
   inkscape:export-xdpi="33.060085"
   inkscape:export-filename="/home/steve/projects/bigtech.fail/website/static/img/emoji/face-with-tears-of-joy.png"
   inkscape:version="1.0 (4035a4fb49, 2020-05-01)"
   sodipodi:docname="face-with-tears-of-joy.svg"
   id="svg8"
   version="1.1"
   viewBox="0 0 210 297"
   height="297mm"
   width="210mm">
  <defs
     id="defs2" />
  <sodipodi:namedview
     inkscape:guide-bbox="true"
     showguides="true"
     inkscape:window-maximized="1"
     inkscape:window-y="0"
     inkscape:window-x="0"
     inkscape:window-height="1015"
     inkscape:window-width="1920"
     showgrid="false"
     inkscape:document-rotation="0"
     inkscape:current-layer="layer3"
     inkscape:document-units="mm"
     inkscape:cy="514.42029"
     inkscape:cx="372.2422"
     inkscape:zoom="0.83762581"
     inkscape:pageshadow="2"
     inkscape:pageopacity="0.0"
     borderopacity="1.0"
     bordercolor="#666666"
     pagecolor="#ffffff"
     id="base" />
  <metadata
     id="metadata5">
    <rdf:RDF>
      <cc:Work
         rdf:about="">
        <dc:format>image/svg+xml</dc:format>
        <dc:type
           rdf:resource="http://purl.org/dc/dcmitype/StillImage" />
        <dc:title></dc:title>
      </cc:Work>
    </rdf:RDF>
  </metadata>
  <g
     id="layer1"
     inkscape:groupmode="layer"
     inkscape:label="base">
    <circle
       r="95.842163"
       cy="123.38254"
       cx="103.78429"
       id="path10"
       style="fill:#f7e65d;stroke:#d5ac11;stroke-width:5;stroke-linejoin:round;stroke-miterlimit:4;stroke-dasharray:none;fill-opacity:1;stroke-opacity:1" />
  </g>
  <g
     inkscape:label="smile"
     id="layer2"
     inkscape:groupmode="layer">
    <path
       d="M 162.86115,146.4761 A 59.043472,43.703693 0 0 1 103.84653,190.17979 59.043472,43.703693 0 0 1 44.774236,146.51882 Z"
       sodipodi:arc-type="chord"
       sodipodi:open="true"
       sodipodi:end="3.1406153"
       sodipodi:start="0"
       sodipodi:ry="43.703693"
       sodipodi:rx="59.043472"
       sodipodi:cy="146.4761"
       sodipodi:cx="103.81768"
       sodipodi:type="arc"
       id="path907"
       style="fill:#765000;fill-opacity:1;stroke:#765000;stroke-width:8.344;stroke-linecap:round;stroke-linejoin:round;stroke-miterlimit:4;stroke-dasharray:none;stroke-opacity:1" />
    <path
       transform="matrix(1,0,0.01884392,0.99982244,0,0)"
       d="M 151.27628,150.33386 A 50.034302,16.010862 0 0 1 101.26643,166.34472 50.034302,16.010862 0 0 1 51.207704,150.34951 Z"
       sodipodi:arc-type="chord"
       sodipodi:open="true"
       sodipodi:end="3.1406153"
       sodipodi:start="0"
       sodipodi:ry="16.010862"
       sodipodi:rx="50.034302"
       sodipodi:cy="150.33386"
       sodipodi:cx="101.24198"
       sodipodi:type="arc"
       id="path909"
       style="fill:#ffffff;fill-opacity:1;stroke:#ffffff;stroke-width:1.89744;stroke-linecap:round;stroke-linejoin:round;stroke-miterlimit:4;stroke-dasharray:none;stroke-opacity:1" />
  </g>
  <g
     inkscape:label="eyes"
     id="layer3"
     inkscape:groupmode="layer">
    <path
       sodipodi:nodetypes="sssss"
       d="m 83.997814,105.81743 c 6e-6,4.8267 -7.722451,-8.15946 -17.375846,-8.15946 -9.653395,-1e-6 -17.582179,12.98616 -17.582173,8.15946 3e-6,-4.82669 7.825621,-13.889219 17.479009,-13.889219 9.653388,0 17.479007,9.062529 17.47901,13.889219 z"
       style="fill:#765000;fill-opacity:1;stroke:#765000;stroke-width:8.34401;stroke-linecap:round;stroke-linejoin:round;stroke-miterlimit:4;stroke-dasharray:none;stroke-opacity:1"
       id="path940" />
    <path
       id="path943"
       style="fill:#765000;fill-opacity:1;stroke:#765000;stroke-width:8.34401;stroke-linecap:round;stroke-linejoin:round;stroke-miterlimit:4;stroke-dasharray:none;stroke-opacity:1"
       d="m 159.18274,105.81743 c 0,4.8267 -7.72245,-8.15946 -17.37585,-8.15946 -9.65339,-1e-6 -17.58218,12.98616 -17.58217,8.15946 0,-4.82669 7.82562,-13.889219 17.47901,-13.889219 9.65338,0 17.479,9.062529 17.47901,13.889219 z"
       sodipodi:nodetypes="sssss" />
  </g>
  <g
     inkscape:label="tears"
     id="layer4"
     inkscape:groupmode="layer">
    <path
       id="path953"
       style="fill:#00ffff;stroke:#0000ff;stroke-width:2.44692;stroke-linecap:round;stroke-linejoin:round;stroke-miterlimit:4;stroke-dasharray:none"
       d="M 50.498297,161.92444 C 46.777191,175.47292 34.292503,183.85568 22.612957,180.64788 10.93341,177.44008 4.4818179,163.85644 8.2029249,150.30796 11.924027,136.7595 40.286356,112.39748 40.286356,112.39748 c 0,0 13.933043,35.97849 10.211941,49.52696 z"
       sodipodi:nodetypes="ssscs" />
    <path
       sodipodi:nodetypes="ssscs"
       d="m 157.33483,161.85187 c 3.72111,13.54848 16.2058,21.93124 27.88534,18.72344 11.67955,-3.2078 18.13114,-16.79144 14.41004,-30.33992 -3.72111,-13.54846 -32.08344,-37.91048 -32.08344,-37.91048 0,0 -13.93304,35.97849 -10.21194,49.52696 z"
       style="fill:#00ffff;stroke:#0000ff;stroke-width:2.44692;stroke-linecap:round;stroke-linejoin:round;stroke-miterlimit:4;stroke-dasharray:none"
       id="path1539" />
  </g>
</svg>
