<?xml version="1.0" encoding="UTF-8" standalone="no"?>
<svg
   xmlns:dc="http://purl.org/dc/elements/1.1/"
   xmlns:cc="http://creativecommons.org/ns#"
   xmlns:rdf="http://www.w3.org/1999/02/22-rdf-syntax-ns#"
   xmlns:svg="http://www.w3.org/2000/svg"
   xmlns="http://www.w3.org/2000/svg"
   xmlns:sodipodi="http://sodipodi.sourceforge.net/DTD/sodipodi-0.dtd"
   xmlns:inkscape="http://www.inkscape.org/namespaces/inkscape"
   width="512"
   height="512"
   viewBox="0 0 135.46666 135.46667"
   version="1.1"
   id="svg1108"
   inkscape:export-filename="/home/steve/projects/bigtech.fail/website/static/img/emoji/poo.png"
   inkscape:export-xdpi="48.000004"
   inkscape:export-ydpi="48.000004"
   inkscape:version="1.0.1 (3bc2e813f5, 2020-09-07)"
   sodipodi:docname="government.svg">
  <defs
     id="defs1102" />
  <sodipodi:namedview
     id="base"
     pagecolor="#ffffff"
     bordercolor="#666666"
     borderopacity="1.0"
     inkscape:pageopacity="0.0"
     inkscape:pageshadow="2"
     inkscape:zoom="1.2938796"
     inkscape:cx="250.79168"
     inkscape:cy="235.52177"
     inkscape:document-units="mm"
     inkscape:current-layer="layer7"
     inkscape:document-rotation="0"
     showgrid="false"
     units="px"
     inkscape:window-width="1920"
     inkscape:window-height="1015"
     inkscape:window-x="0"
     inkscape:window-y="0"
     inkscape:window-maximized="1"
     showguides="true"
     inkscape:guide-bbox="true">
    <sodipodi:guide
       position="44.389723,37.759489"
       orientation="1,0"
       id="guide1990" />
    <sodipodi:guide
       position="91.201811,36.903271"
       orientation="1,0"
       id="guide1992" />
    <sodipodi:guide
       position="157.17889,62.725182"
       orientation="0,-1"
       id="guide2006" />
    <sodipodi:guide
       position="155.6336,33.28476"
       orientation="0,-1"
       id="guide1299" />
  </sodipodi:namedview>
  <metadata
     id="metadata1105">
    <rdf:RDF>
      <cc:Work
         rdf:about="">
        <dc:format>image/svg+xml</dc:format>
        <dc:type
           rdf:resource="http://purl.org/dc/dcmitype/StillImage" />
        <dc:title />
      </cc:Work>
    </rdf:RDF>
  </metadata>
  <g
     inkscape:groupmode="layer"
     id="layer2"
     inkscape:label="border"
     style="display:inline" />
  <g
     inkscape:label="pile"
     inkscape:groupmode="layer"
     id="layer1"
     style="display:inline">
    <g
       id="g1239"
       style="display:inline;stroke:#ffffff;stroke-opacity:1"
       transform="matrix(1.0484226,0,0,1.0484226,-3.2503412,-3.4501945)">
      <path
         id="path923"
         style="display:inline;fill:none;fill-opacity:1;stroke:#ffffff;stroke-width:3.25892;stroke-linecap:round;stroke-miterlimit:4;stroke-dasharray:none;stroke-opacity:1;paint-order:markers fill stroke"
         d="m 82.514069,5.8336272 c -14.039312,0 -32.773365,29.7667538 -44.838842,34.9226438 -6.961639,2.974887 -13.111944,8.065402 -13.111944,16.969531 0,5.270869 2.01196,9.966525 5.182094,13.088534 -8.255685,0.709452 -14.705011,7.964328 -14.705011,16.872914 0,4.560014 1.692789,8.684143 4.449291,11.722717 -6.653642,1.097823 -11.7133227,7.147783 -11.7133227,14.492873 0,8.12822 6.1955047,14.67186 13.8912337,14.67186 h 89.958602 c 7.69574,0 13.89124,-6.54364 13.89124,-14.67186 0,-7.34509 -5.05968,-13.39505 -11.71333,-14.492873 2.7565,-3.038574 4.4493,-7.162703 4.4493,-11.722717 0,-8.908586 -6.44932,-16.163462 -14.70501,-16.872914 3.17014,-3.122009 5.18209,-7.817665 5.18209,-13.088534 0,-7.999268 -4.92947,-13.610212 -10.918535,-16.531331 -6.032264,-2.94219 -16.099137,-10.534568 -16.099137,-19.214924 0,-14.7067407 15.384435,-16.1459198 0.801281,-16.1459198 z" />
      <path
         id="path1208"
         style="display:inline;fill:none;fill-opacity:1;stroke:#ffffff;stroke-width:3.25892;stroke-linecap:round;stroke-miterlimit:4;stroke-dasharray:none;stroke-opacity:1;paint-order:markers fill stroke"
         d="m 84.630737,6.3627939 c -14.039312,0 -32.773365,29.7667541 -44.838842,34.9226441 -6.961639,2.974887 -13.111944,8.065402 -13.111944,16.969531 0,5.270869 2.01196,9.966525 5.182094,13.088534 -8.255685,0.709452 -14.705011,7.964328 -14.705011,16.872914 0,4.560014 1.692789,8.684143 4.449291,11.722717 -6.653642,1.097826 -11.7133239,7.147786 -11.7133239,14.492876 0,8.12822 6.1955059,14.67186 13.8912349,14.67186 h 89.958614 c 7.69574,0 13.89124,-6.54364 13.89124,-14.67186 0,-7.34509 -5.05968,-13.39505 -11.71333,-14.492876 2.7565,-3.038574 4.4493,-7.162703 4.4493,-11.722717 0,-8.908586 -6.44932,-16.163462 -14.70501,-16.872914 3.17014,-3.122009 5.18209,-7.817665 5.18209,-13.088534 0,-7.999268 -4.92947,-13.610212 -10.918547,-16.531331 -6.032264,-2.94219 -16.099137,-10.534568 -16.099137,-19.214924 0,-14.706741 15.384435,-16.1459201 0.801281,-16.1459201 z" />
      <path
         id="path1210"
         style="display:inline;fill:none;fill-opacity:1;stroke:#ffffff;stroke-width:3.25892;stroke-linecap:round;stroke-miterlimit:4;stroke-dasharray:none;stroke-opacity:1;paint-order:markers fill stroke"
         d="m 84.630737,6.8919606 c -14.039312,0 -32.773365,29.7667544 -44.838842,34.9226444 -6.961639,2.974887 -13.111944,8.065402 -13.111944,16.969531 0,5.270869 2.01196,9.966525 5.182094,13.088534 -8.255685,0.709452 -14.705011,7.964328 -14.705011,16.872914 0,4.560014 1.692789,8.684143 4.449291,11.722716 -6.653642,1.09783 -11.7133239,7.14779 -11.7133239,14.49288 0,8.12822 6.1955059,14.67186 13.8912349,14.67186 h 89.958614 c 7.69574,0 13.89124,-6.54364 13.89124,-14.67186 0,-7.34509 -5.05968,-13.39505 -11.71333,-14.49288 2.7565,-3.038573 4.4493,-7.162702 4.4493,-11.722716 0,-8.908586 -6.44932,-16.163462 -14.70501,-16.872914 3.17014,-3.122009 5.18209,-7.817665 5.18209,-13.088534 0,-7.999268 -4.92947,-13.610212 -10.918547,-16.531331 -6.032264,-2.94219 -16.099137,-10.534568 -16.099137,-19.214924 0,-14.7067413 15.384435,-16.1459204 0.801281,-16.1459204 z" />
      <path
         id="path1212"
         style="display:inline;fill:none;fill-opacity:1;stroke:#ffffff;stroke-width:3.25892;stroke-linecap:round;stroke-miterlimit:4;stroke-dasharray:none;stroke-opacity:1;paint-order:markers fill stroke"
         d="m 84.630737,5.8336272 c -14.039312,0 -32.773365,29.7667538 -44.838842,34.9226438 -6.961639,2.974887 -13.111944,8.065402 -13.111944,16.969531 0,5.270869 2.01196,9.966525 5.182094,13.088534 -8.255685,0.709452 -14.705011,7.964328 -14.705011,16.872914 0,4.560014 1.692789,8.684143 4.449291,11.722716 -6.653642,1.097824 -11.7133239,7.147784 -11.7133239,14.492874 0,8.12822 6.1955059,14.67186 13.8912349,14.67186 h 89.958614 c 7.69574,0 13.89124,-6.54364 13.89124,-14.67186 0,-7.34509 -5.05968,-13.39505 -11.71333,-14.492874 2.7565,-3.038573 4.4493,-7.162702 4.4493,-11.722716 0,-8.908586 -6.44932,-16.163462 -14.70501,-16.872914 3.17014,-3.122009 5.18209,-7.817665 5.18209,-13.088534 0,-7.999268 -4.92947,-13.610212 -10.918547,-16.531331 -6.032264,-2.94219 -16.099137,-10.534568 -16.099137,-19.214924 0,-14.7067407 15.384435,-16.1459198 0.801281,-16.1459198 z" />
      <path
         id="path1214"
         style="display:inline;fill:none;fill-opacity:1;stroke:#ffffff;stroke-width:3.25892;stroke-linecap:round;stroke-miterlimit:4;stroke-dasharray:none;stroke-opacity:1;paint-order:markers fill stroke"
         d="m 82.514069,6.8919606 c -14.039312,0 -32.773365,29.7667544 -44.838842,34.9226444 -6.961639,2.974887 -13.111944,8.065402 -13.111944,16.969531 0,5.270869 2.01196,9.966525 5.182094,13.088534 -8.255685,0.709452 -14.705011,7.964328 -14.705011,16.872914 0,4.560014 1.692789,8.684143 4.449291,11.722716 -6.653642,1.09783 -11.7133227,7.14779 -11.7133227,14.49288 0,8.12822 6.1955047,14.67186 13.8912337,14.67186 h 89.958602 c 7.69574,0 13.89124,-6.54364 13.89124,-14.67186 0,-7.34509 -5.05968,-13.39505 -11.71333,-14.49288 2.7565,-3.038573 4.4493,-7.162702 4.4493,-11.722716 0,-8.908586 -6.44932,-16.163462 -14.70501,-16.872914 3.17014,-3.122009 5.18209,-7.817665 5.18209,-13.088534 0,-7.999268 -4.92947,-13.610212 -10.918535,-16.531331 -6.032264,-2.94219 -16.099137,-10.534568 -16.099137,-19.214924 0,-14.7067413 15.384435,-16.1459204 0.801281,-16.1459204 z" />
      <path
         id="path1228"
         style="display:inline;fill:none;fill-opacity:1;stroke:#ffffff;stroke-width:3.25892;stroke-linecap:round;stroke-miterlimit:4;stroke-dasharray:none;stroke-opacity:1;paint-order:markers fill stroke"
         d="m 82.514069,7.4211273 c -14.039312,0 -32.773365,29.7667547 -44.838842,34.9226447 -6.961639,2.974887 -13.111944,8.065402 -13.111944,16.969531 0,5.270869 2.01196,9.966525 5.182094,13.088534 -8.255685,0.709452 -14.705011,7.964328 -14.705011,16.872914 0,4.560014 1.692789,8.684143 4.449291,11.722719 -6.653642,1.09783 -11.7133227,7.14779 -11.7133227,14.49288 0,8.12822 6.1955047,14.67186 13.8912337,14.67186 h 89.958602 c 7.69574,0 13.89124,-6.54364 13.89124,-14.67186 0,-7.34509 -5.05968,-13.39505 -11.71333,-14.49288 2.7565,-3.038576 4.4493,-7.162705 4.4493,-11.722719 0,-8.908586 -6.44932,-16.163462 -14.70501,-16.872914 3.17014,-3.122009 5.18209,-7.817665 5.18209,-13.088534 0,-7.999268 -4.92947,-13.610212 -10.918535,-16.531331 -6.032264,-2.94219 -16.099137,-10.534568 -16.099137,-19.214924 0,-14.7067416 15.384435,-16.1459207 0.801281,-16.1459207 z" />
      <path
         id="path1230"
         style="display:inline;fill:none;fill-opacity:1;stroke:#ffffff;stroke-width:3.25892;stroke-linecap:round;stroke-miterlimit:4;stroke-dasharray:none;stroke-opacity:1;paint-order:markers fill stroke"
         d="m 83.572403,5.62946 c -14.039312,0 -32.773365,29.766754 -44.838842,34.922644 -6.961639,2.974887 -13.111944,8.065402 -13.111944,16.969531 0,5.270869 2.01196,9.966525 5.182094,13.088534 -8.255685,0.709452 -14.705011,7.964328 -14.705011,16.872914 0,4.560014 1.692789,8.684143 4.449291,11.722716 -6.653642,1.097821 -11.7133233,7.147781 -11.7133233,14.492871 0,8.12822 6.1955053,14.67186 13.8912343,14.67186 h 89.958608 c 7.69574,0 13.89124,-6.54364 13.89124,-14.67186 0,-7.34509 -5.05968,-13.39505 -11.71333,-14.492871 2.7565,-3.038573 4.4493,-7.162702 4.4493,-11.722716 0,-8.908586 -6.44932,-16.163462 -14.70501,-16.872914 3.17014,-3.122009 5.18209,-7.817665 5.18209,-13.088534 0,-7.999268 -4.92947,-13.610212 -10.918541,-16.531331 -6.032264,-2.94219 -16.099137,-10.534568 -16.099137,-19.214924 0,-14.7067409 15.384435,-16.14592 0.801281,-16.14592 z" />
    </g>
    <path
       id="rect1671"
       style="fill:#ab683c;fill-opacity:1;stroke:#4b2d1c;stroke-width:3.389;stroke-linecap:round;stroke-miterlimit:4;stroke-dasharray:none;stroke-opacity:1;paint-order:markers fill stroke"
       d="m 84.260781,3.7310763 c -14.597415,0 -34.076199,30.9605837 -46.621313,36.3232567 -7.238386,3.094201 -13.633182,8.388875 -13.633182,17.650117 0,5.482262 2.091941,10.366243 5.388097,13.613465 -8.583872,0.737905 -15.289578,8.283748 -15.289578,17.549623 0,4.742898 1.760084,9.032431 4.626166,12.192872 -6.918146,1.14186 -12.1789634,7.43449 -12.1789634,15.07413 0,8.4542 6.4417944,15.26031 14.4434504,15.26031 h 93.534712 c 8.00166,0 14.44345,-6.80611 14.44345,-15.26031 0,-7.63964 -5.26081,-13.93227 -12.17897,-15.07413 2.86609,-3.160441 4.62618,-7.449974 4.62618,-12.192872 0,-9.265875 -6.70571,-16.811718 -15.28958,-17.549623 3.29616,-3.247222 5.3881,-8.131203 5.3881,-13.613465 0,-8.32009 -5.12545,-14.156067 -11.35259,-17.19434 -6.272054,-3.06019 -16.739114,-10.957069 -16.739114,-19.98556 0,-15.2965747 15.996011,-16.7934737 0.833135,-16.7934737 z" />
    <g
       id="g1291"
       transform="matrix(0.88806188,0,0,0.96016172,7.7936866,1.7506257)"
       style="stroke-width:0.99955776;stroke-miterlimit:4;stroke-dasharray:none">
      <ellipse
         style="display:inline;fill:#ffffff;fill-opacity:1;stroke:#000000;stroke-width:0.99955776;stroke-linecap:round;stroke-linejoin:round;stroke-miterlimit:4;stroke-dasharray:none;stroke-dashoffset:0;stroke-opacity:1"
         id="ellipse1275"
         cx="84.153397"
         cy="74.601807"
         rx="13.418935"
         ry="18.883108" />
      <ellipse
         style="display:inline;fill:#000000;fill-opacity:1;stroke:#000000;stroke-width:0.99955776;stroke-linecap:round;stroke-linejoin:round;stroke-miterlimit:4;stroke-dasharray:none;stroke-dashoffset:0;stroke-opacity:1"
         id="ellipse1277"
         cx="84.153397"
         cy="74.601807"
         rx="4.4831896"
         ry="7.2331896" />
    </g>
    <g
       id="g1297"
       transform="matrix(0.88806188,0,0,0.96016172,-21.871325,1.7506257)">
      <ellipse
         style="display:inline;fill:#ffffff;fill-opacity:1;stroke:#000000;stroke-width:1.19743;stroke-linecap:round;stroke-linejoin:round;stroke-miterlimit:4;stroke-dasharray:none;stroke-dashoffset:0;stroke-opacity:1"
         id="ellipse1293"
         cx="84.153397"
         cy="74.601807"
         rx="13.418935"
         ry="18.883108" />
      <ellipse
         style="display:inline;fill:#000000;fill-opacity:1;stroke:#000000;stroke-width:0.533621;stroke-linecap:round;stroke-linejoin:round;stroke-miterlimit:4;stroke-dasharray:none;stroke-dashoffset:0;stroke-opacity:1"
         id="ellipse1295"
         cx="84.153397"
         cy="74.601807"
         rx="4.4831896"
         ry="7.2331896" />
    </g>
  </g>
  <g
     inkscape:groupmode="layer"
     id="layer5"
     inkscape:label="top"
     style="display:inline" />
  <g
     inkscape:groupmode="layer"
     id="layer7"
     inkscape:label="mouth"
     style="display:inline">
    <path
       style="display:inline;fill:#ffffff;fill-opacity:1;stroke:#000000;stroke-width:1.25;stroke-linecap:round;stroke-linejoin:bevel;stroke-miterlimit:4;stroke-dasharray:none;stroke-dashoffset:0;stroke-opacity:1"
       id="path997"
       sodipodi:type="arc"
       sodipodi:cx="67.733337"
       sodipodi:cy="102.3633"
       sodipodi:rx="23.344778"
       sodipodi:ry="18.148867"
       sodipodi:start="0"
       sodipodi:end="3.1515876"
       sodipodi:arc-type="slice"
       d="m 91.078115,102.3633 a 23.344778,18.148867 0 0 1 -11.73981,15.74752 23.344778,18.148867 0 0 1 -23.41181,-0.091 23.344778,18.148867 0 0 1 -11.53677,-15.83796 l 23.343612,0.1814 z" />
  </g>
</svg>
