<?xml version="1.0" encoding="UTF-8" standalone="no"?>
<svg
   xmlns:dc="http://purl.org/dc/elements/1.1/"
   xmlns:cc="http://creativecommons.org/ns#"
   xmlns:rdf="http://www.w3.org/1999/02/22-rdf-syntax-ns#"
   xmlns:svg="http://www.w3.org/2000/svg"
   xmlns="http://www.w3.org/2000/svg"
   xmlns:sodipodi="http://sodipodi.sourceforge.net/DTD/sodipodi-0.dtd"
   xmlns:inkscape="http://www.inkscape.org/namespaces/inkscape"
   inkscape:export-ydpi="32.509998"
   inkscape:export-xdpi="32.509998"
   inkscape:export-filename="/home/steve/projects/bigtech.fail/website/static/img/emoji/waving-hand.png"
   width="200mm"
   height="200mm"
   viewBox="0 0 200 200"
   version="1.1"
   id="svg3152"
   sodipodi:docname="hand-wave.svg"
   inkscape:version="1.0 (4035a4fb49, 2020-05-01)">
  <defs
     id="defs3146" />
  <sodipodi:namedview
     id="base"
     pagecolor="#ffffff"
     bordercolor="#666666"
     borderopacity="1.0"
     inkscape:pageopacity="0.0"
     inkscape:pageshadow="2"
     inkscape:zoom="0.83271256"
     inkscape:cx="295.42698"
     inkscape:cy="419.35525"
     inkscape:document-units="mm"
     inkscape:current-layer="layer17"
     inkscape:document-rotation="0"
     showgrid="false"
     inkscape:window-width="1920"
     inkscape:window-height="1015"
     inkscape:window-x="0"
     inkscape:window-y="0"
     inkscape:window-maximized="1"
     showguides="false" />
  <metadata
     id="metadata3149">
    <rdf:RDF>
      <cc:Work
         rdf:about="">
        <dc:format>image/svg+xml</dc:format>
        <dc:type
           rdf:resource="http://purl.org/dc/dcmitype/StillImage" />
        <dc:title />
      </cc:Work>
    </rdf:RDF>
  </metadata>
  <g
     style="display:inline"
     inkscape:label="base"
     inkscape:groupmode="layer"
     id="layer1">
    <path
       id="rect3769"
       style="fill:#ffb100;fill-opacity:1;stroke:#9f5d00;stroke-width:5.74028;stroke-linecap:round;stroke-linejoin:round;stroke-miterlimit:4;stroke-dasharray:none;stroke-opacity:1"
       d="m 52.706825,44.926309 0.184734,-0.129252 38.621993,55.115078 -0.184733,0.129245 z m -5.310666,33.03815 0.204116,-0.142814 32.487479,46.360885 -0.204117,0.14282 z M 104.56156,77.390747 66.499004,23.588107 C 62.397882,17.791026 54.868244,16.081851 49.558539,19.79686 v 0 c -5.309704,3.715007 -6.303216,11.387434 -2.228094,17.202791 l 5.436803,7.758528 C 48.650121,39.160871 41.249593,37.576631 36.022856,41.23359 30.713152,44.948596 29.719639,52.621024 33.794762,58.436381 l 13.815834,19.715731 c -4.205479,-4.980991 -11.16865,-6.258739 -16.153382,-2.771106 -5.3097,3.715007 -6.303721,11.387806 -2.228607,17.203148 l 47.953976,68.432186 c 0.343159,0.48969 0.712621,0.94768 1.101724,1.37812 0.251797,0.37713 0.508413,0.7529 0.770148,1.12642 17.198955,24.54356 41.776625,27.56467 64.275255,11.82318 20.37858,-14.25814 36.82383,-55.25109 26.96164,-81.088671 -0.0715,-1.08294 -0.28592,-2.175336 -0.66163,-3.252264 l -14.43328,-41.37065 c -2.23496,-6.406174 -9.19535,-9.765504 -15.60652,-7.532267 -6.41112,2.233233 -9.77308,9.18821 -7.53811,15.594376 l 10.81626,31.002961 c -0.37477,0.345856 -0.76415,0.706772 -1.14717,1.061371 -0.13247,-0.211947 -0.26954,-0.421992 -0.41494,-0.62946 L 93.351999,20.697278 C 89.276875,14.881921 81.721228,13.19103 76.411525,16.906035 c -5.309701,3.715006 -6.303212,11.387432 -2.228091,17.20279 l 39.307796,56.093742" />
  </g>
  <g
     inkscape:label="waves"
     id="layer17"
     inkscape:groupmode="layer">
    <path
       style="fill:none;stroke:#00a3ff;stroke-width:9.23795;stroke-linecap:round;stroke-linejoin:round;stroke-miterlimit:4;stroke-dasharray:none;stroke-opacity:1"
       id="path5861"
       sodipodi:type="arc"
       sodipodi:cx="-138.43629"
       sodipodi:cy="29.094751"
       sodipodi:rx="52.077915"
       sodipodi:ry="58.671906"
       sodipodi:start="0.66511135"
       sodipodi:end="2.4700253"
       sodipodi:open="true"
       sodipodi:arc-type="arc"
       d="M -97.458887,65.303927 A 52.077915,58.671906 0 0 1 -138.26819,87.766351 52.077915,58.671906 0 0 1 -179.20536,65.601218"
       transform="matrix(-0.7321628,-0.68112968,0.70075702,-0.71340002,0,0)" />
    <path
       transform="matrix(-0.67048504,-0.74192305,0.75985341,-0.65009445,0,0)"
       d="m -101.86657,104.54184 a 52.285057,58.905277 0 0 1 -57.23277,3.47365"
       sodipodi:arc-type="arc"
       sodipodi:open="true"
       sodipodi:end="2.0970771"
       sodipodi:start="0.93687517"
       sodipodi:ry="58.905277"
       sodipodi:rx="52.285057"
       sodipodi:cy="57.081203"
       sodipodi:cx="-132.83546"
       sodipodi:type="arc"
       id="path6442"
       style="fill:none;stroke:#00a3ff;stroke-width:9.27469;stroke-linecap:round;stroke-linejoin:round;stroke-miterlimit:4;stroke-dasharray:none;stroke-opacity:1" />
    <path
       transform="matrix(-0.51286754,-0.85846776,-0.84422679,0.53598612,0,0)"
       d="m -106.93396,34.051573 a 56.103001,63.206638 0 0 1 -76.08397,-5.257031"
       sodipodi:arc-type="arc"
       sodipodi:open="true"
       sodipodi:end="2.378923"
       sodipodi:start="0.88517559"
       sodipodi:ry="63.206638"
       sodipodi:rx="56.103001"
       sodipodi:cy="-14.87202"
       sodipodi:cx="-142.45578"
       sodipodi:type="arc"
       id="path6444"
       style="fill:none;stroke:#00a3ff;stroke-width:9.95194;stroke-linecap:round;stroke-linejoin:round;stroke-miterlimit:4;stroke-dasharray:none;stroke-opacity:1" />
    <path
       style="fill:none;stroke:#00a3ff;stroke-width:9.93604;stroke-linecap:round;stroke-linejoin:round;stroke-miterlimit:4;stroke-dasharray:none;stroke-opacity:1"
       id="path6446"
       sodipodi:type="arc"
       sodipodi:cx="-135.6389"
       sodipodi:cy="37.149303"
       sodipodi:rx="56.013313"
       sodipodi:ry="63.105598"
       sodipodi:start="0.93687517"
       sodipodi:end="2.0970771"
       sodipodi:open="true"
       sodipodi:arc-type="arc"
       d="m -102.46173,87.994189 a 56.013313,63.105598 0 0 1 -61.31383,3.721345"
       transform="matrix(-0.70603917,-0.70817278,-0.68874255,0.725006,0,0)" />
  </g>
</svg>
